<svg t="1592187421395" class="icon" viewBox="0 0 1024 1024" version="1.1" xmlns="http://www.w3.org/2000/svg" p-id="1185" width="32" height="32"><path d="M512 896a384 384 0 1 1 0-768 384 384 0 0 1 0 768z m-5.632-132.010667a34.901333 34.901333 0 1 0 0-69.76 34.901333 34.901333 0 0 0 0 69.76z m150.186667-339.882666a131.584 131.584 0 0 0-37.12-98.688A148.949333 148.949333 0 0 0 511.573333 279.466667a143.701333 143.701333 0 0 0-102.101333 42.453333c-27.221333 27.306667-42.24 63.573333-42.24 102.144a29.013333 29.013333 0 1 0 58.026667 0c0-47.701333 38.826667-86.528 86.485333-86.613333h0.170667c24.746667 0 48.597333 10.154667 65.450666 27.861333 14.805333 15.573333 22.314667 35.285333 21.248 55.68-0.853333 17.493333-1.749333 34.005333-53.76 85.930667-32.426667 32.469333-61.952 64.938667-65.92 105.130666a29.013333 29.013333 0 0 0 57.813334 5.717334c1.834667-19.072 20.138667-40.832 49.152-69.845334 57.173333-57.173333 68.650667-86.613333 70.656-123.861333z" p-id="1186"></path></svg>